{"title":"Captain Phillips 2013 CAM XViD-UNiQUE","uid":9102996,"size":1520177404,"categoryP":"video","categoryS":"movies","magnet":"?xt=urn:btih:9a68bb0759d4c33b2f2d4e343773a279aec93003&amp;dn=Captain+Phillips+2013+CAM+XViD-UNiQUE&amp;tr=udp%3A%2F%2Ftracker.openbittorrent.com%3A80&amp;tr=udp%3A%2F%2Fopen.demonii.com%3A1337&amp;tr=udp%3A%2F%2Ftracker.coppersurfer.tk%3A6969&amp;tr=udp%3A%2F%2Fexodus.desync.com%3A6969","seeders":5,"leechers":0,"uploader":"TeX","files":4,"time":1382805526,"description":"[img]http://neuropod.net/imagehost/uploads/75bd9de1178642c3eb8a013ed0c2eb39.jpg[/img]\n\n\n\nGenre : Action / Adventure / Biography / Drama / Thriller\n\nPlot : Captain Phillips is a multi-layered examination of the 2009 hijacking of the U.S. container ship Maersk Alabama by a crew of Somali pirates. It is - through director Paul Greengrass's distinctive lens - simultaneously a pulse-pounding thriller, and a complex portrait of the myriad effects of globalization. The film focuses on the relationship between the Alabama's commanding officer, Captain Richard Phillips (two time Academy Award?-winner Tom Hanks), and the Somali pirate captain, Muse (Barkhad Abdi), who takes him hostage. Phillips and Muse are set on an unstoppable collision course when Muse and his crew target Phillips' unarmed ship; in the ensuing standoff, 145 miles off the Somali coast, both men will find themselves at the mercy of forces beyond their control.\n\n\nCaptain Phillips 2013 CAM XViD UNiQUE\n\nFormat: AVI\nFormat/Info: Audio Video Interleave\nFile size: 1.40 GiB\nDuration: 2h 7mn\nOverall bit rate: 1 573 Kbps\nWriting application: VirtualDubMod 1.5.10.2 (build 2540/release)\nWriting library: VirtualDubMod build 2540/release\n\nVideo\nID: 0\nFormat: MPEG-4 Visual\nFormat profile: Advanced Simple@L5\nFormat settings, BVOP: 2\nFormat settings, QPel: No\nFormat settings, GMC: No warppoints\nFormat settings, Matrix: Default (H.263)\nMuxing mode: Packed bitstream\nCodec ID: XVID\nCodec ID/Hint: XviD\nDuration: 2h 7mn\nBit rate: 1 433 Kbps\nWidth: 712 pixels\nHeight: 332 pixels\nDisplay aspect ratio: 2.145\nFrame rate: 29.970 fps\nColor space: YUV\nChroma subsampling: 4:2:0\nBit depth: 8 bits\nScan type: Progressive\nCompression mode: Lossy\nBits/(Pixel*Frame): 0.202\nStream size: 1.27 GiB (91%)\nWriting library: XviD 64\n\nAudio\nID: 1\nFormat: MPEG Audio\nFormat version: Version 1\nFormat profile: Layer 3\nCodec ID: 55\nCodec ID/Hint: MP3\nDuration: 2h 7mn\nBit rate mode: Constant\nBit rate: 128 Kbps\nChannel(s): 2 channels\nSampling rate: 48.0 KHz\nCompression mode: Lossy\nStream size: 116 MiB (8%)\nAlignment: Split accross interleaves\nInterleave, duration: 33 ms (1.00 video frame)\nInterleave, preload duration: 500 ms\n\nSource Used Patriots - Thanks\n &lt;a href=&quot;\nhttp://www.imdb.com/title/tt1535109/&quot; rel=&quot;nofollow&quot; target=&quot;_NEW&quot;&gt;\nhttp://www.imdb.com/title/tt1535109/&lt;/a&gt;\n\n\n[img]http://neuropod.net/imagehost/uploads/fb946e88f34fd88cd11127c03a26fbdc.png[/img]\n[img]http://neuropod.net/imagehost/uploads/d0d2098602f3749bd46d83da370a5a7d.png[/img]\n[img]http://neuropod.net/imagehost/uploads/d900cae8d9fcfaa22b727ab3e2b0be68.png[/img]\n[img]http://neuropod.net/imagehost/uploads/13089713f76aab3135ead1b6aba3e061.png[/img]","torrent":{"xt":"urn:btih:9a68bb0759d4c33b2f2d4e343773a279aec93003","amp;dn":"Captain+Phillips+2013+CAM+XViD-UNiQUE","amp;tr":["udp%3A%2F%2Ftracker.openbittorrent.com%3A80","udp%3A%2F%2Fopen.demonii.com%3A1337","udp%3A%2F%2Ftracker.coppersurfer.tk%3A6969","udp%3A%2F%2Fexodus.desync.com%3A6969"],"infoHash":"9a68bb0759d4c33b2f2d4e343773a279aec93003","infoHashBuffer":{"type":"Buffer","data":[154,104,187,7,89,212,195,59,47,45,78,52,55,115,162,121,174,201,48,3]},"announce":[],"urlList":[]}}